<svg width="24" height="25" viewBox="0 0 24 25" fill="none" xmlns="http://www.w3.org/2000/svg">
<g clip-path="url(#clip0_842_3163)">
<path d="M12 24.5C18.6274 24.5 24 19.1274 24 12.5C24 5.87258 18.6274 0.5 12 0.5C5.37258 0.5 0 5.87258 0 12.5C0 19.1274 5.37258 24.5 12 24.5Z" fill="#315D8B"/>
<path fill-rule="evenodd" clip-rule="evenodd" d="M16.2626 8.66243L10.3001 14.4249L8.72511 12.7249C8.57614 12.595 8.38756 12.5193 8.19008 12.5102C7.9926 12.5011 7.79787 12.5592 7.63761 12.6749C7.48255 12.7839 7.37361 12.9466 7.33201 13.1315C7.29042 13.3164 7.31915 13.5101 7.41261 13.6749L9.28761 16.7374C9.47511 17.0124 9.80011 17.1874 10.1501 17.1874C10.5001 17.1874 10.8126 17.0124 11.0001 16.7374C11.3001 16.3499 17.0251 9.51243 17.0251 9.51243C17.7751 8.76243 16.8626 8.07493 16.2751 8.66243H16.2626Z" fill="#F1F5F9"/>
</g>
<defs>
<clipPath id="clip0_842_3163">
<rect width="24" height="24" fill="white" transform="translate(0 0.5)"/>
</clipPath>
</defs>
</svg>
